<?xml version="1.0" standalone="no"?>
<!DOCTYPE svg PUBLIC "-//W3C//DTD SVG 20010904//EN"
 "http://www.w3.org/TR/2001/REC-SVG-20010904/DTD/svg10.dtd">
<svg version="1.0" xmlns="http://www.w3.org/2000/svg"
 width="320.000000pt" height="180.000000pt" viewBox="0 0 320.000000 180.000000"
 preserveAspectRatio="xMidYMid meet">
<metadata>
Created by potrace 1.16, written by Peter Selinger 2001-2019
</metadata>
<g transform="translate(0.000000,180.000000) scale(0.100000,-0.100000)"
fill="#000000" stroke="none">
<path d="M0 900 l0 -900 1600 0 1600 0 0 900 0 900 -1600 0 -1600 0 0 -900z
m2726 715 c8 -8 21 -12 29 -9 8 4 15 1 15 -5 0 -6 8 -11 18 -11 10 0 24 -8 33
-18 18 -21 25 -112 10 -122 -6 -3 -13 -33 -15 -66 -2 -32 -2 -45 1 -29 6 42
15 48 49 33 16 -6 34 -12 39 -12 12 -1 45 -36 45 -48 0 -4 32 -8 72 -8 116 0
108 31 108 -411 0 -317 -2 -378 -14 -373 -10 4 -12 -2 -9 -20 4 -20 0 -26 -20
-31 -13 -4 -38 -5 -54 -3 -29 3 -30 3 -11 23 19 20 19 20 12 0 -4 -11 -4 -17
0 -14 4 4 9 16 11 29 4 21 3 21 -20 6 -29 -19 -51 -20 -59 -3 -3 6 -4 0 -2
-15 l3 -28 -573 0 c-561 0 -574 0 -594 20 -13 13 -20 32 -19 53 1 21 3 25 6
11 2 -12 15 -32 29 -45 25 -23 32 -24 200 -27 182 -3 186 -2 163 39 -8 15 -14
18 -23 9 -8 -5 -21 -8 -30 -4 -9 3 -23 1 -30 -5 -9 -8 -16 -8 -20 -2 -4 6 -13
8 -21 4 -9 -3 -15 1 -15 10 0 9 -9 18 -19 22 -11 3 -23 14 -26 25 -3 10 -16
21 -29 24 -23 6 -24 8 -25 131 -1 114 1 125 17 125 10 0 23 -5 30 -12 9 -9 12
-9 12 0 0 7 6 12 14 12 10 0 12 -7 8 -22 -4 -16 -2 -19 9 -13 11 7 12 6 3 -6
-6 -8 -11 -22 -11 -31 0 -14 3 -15 15 -6 11 10 16 9 23 -5 6 -9 15 -17 20 -17
6 0 7 5 4 10 -3 6 -2 10 3 10 5 0 9 -17 10 -39 1 -27 -4 -43 -18 -56 -11 -10
-20 -13 -20 -7 0 6 8 16 18 22 15 10 14 10 -5 5 -12 -3 -25 -1 -28 6 -6 8 -9
8 -15 -1 -4 -7 -23 -15 -41 -19 -43 -9 -53 -50 -18 -75 21 -14 25 -14 47 0 18
12 38 14 76 10 47 -5 174 5 254 20 25 5 32 3 32 -10 0 -14 17 -16 130 -16
l130 0 0 80 0 80 55 0 55 0 2 -37 c1 -21 0 -57 -1 -80 l-3 -43 131 0 131 0 0
30 c0 28 3 30 35 30 l35 0 0 105 0 105 -35 0 c-32 0 -35 2 -35 30 0 17 -4 30
-9 30 -5 0 -14 14 -20 30 -13 38 -22 38 -43 0 -15 -26 -23 -30 -58 -30 -37 0
-40 2 -40 27 0 27 55 123 71 123 4 0 13 -8 18 -17 8 -14 10 -15 11 -3 0 8 -9
21 -19 27 -17 11 -23 7 -48 -35 l-28 -47 -3 48 -3 47 -40 0 -39 0 -2 -67 c-1
-38 -2 -83 -3 -101 -1 -33 -24 -59 -87 -97 l-28 -16 0 55 0 56 -45 0 -45 0 0
-70 c0 -38 -2 -70 -4 -70 -2 0 -28 13 -58 28 -29 16 -63 31 -76 34 -18 5 -22
13 -22 42 0 35 -1 36 -39 36 -33 0 -40 -4 -43 -22 -2 -13 -11 -23 -21 -24 -16
-2 -16 -1 0 3 16 5 8 9 -72 37 -11 4 -4 -2 15 -14 28 -17 30 -20 10 -15 -14 3
-33 8 -44 10 -10 2 -24 9 -31 15 -9 8 -14 7 -17 -1 -5 -14 -28 -3 -28 12 0 6
4 8 9 4 5 -3 12 -1 15 4 3 5 -3 11 -14 14 -12 3 -20 0 -20 -7 0 -8 -14 -13
-35 -14 -33 -1 -35 1 -35 29 0 17 -4 28 -9 24 -5 -3 -12 -1 -16 5 -3 5 -14 10
-23 9 -13 0 -12 -2 4 -9 28 -11 36 -24 28 -44 -8 -21 -21 -20 -28 2 -4 9 -16
28 -27 42 l-21 25 5 -42 c3 -24 1 -43 -4 -43 -5 0 -9 38 -9 84 l0 85 -27 3
c-20 2 -27 8 -25 21 2 12 -4 17 -21 17 -30 0 -40 21 -31 66 7 39 -3 43 -34 14
l-22 -21 0 23 c0 13 7 34 16 46 l15 22 400 0 c396 0 399 0 399 21 0 12 4 17
11 14 6 -4 8 -13 5 -21 -3 -8 -1 -14 4 -14 6 0 10 8 10 18 0 31 24 72 43 72
10 0 25 7 33 15 13 12 12 15 -6 25 -15 8 -19 7 -16 -2 1 -7 1 -10 -1 -5 -7 11
-63 9 -63 -3 0 -5 -12 -9 -27 -9 -17 1 -21 3 -10 6 11 3 17 14 17 34 0 18 5
29 14 29 17 0 27 35 14 48 -7 7 1 18 21 33 26 19 29 25 16 32 -8 4 -15 13 -15
19 0 13 48 1 66 -17z m-2356 -515 c0 -27 3 -30 30 -30 l30 0 0 -90 c0 -83 -1
-90 -20 -90 -17 0 -20 -7 -20 -40 l0 -40 -95 0 -95 0 0 -75 0 -75 -40 0 -40 0
0 235 0 235 125 0 125 0 0 -30z m1320 -205 l0 -235 -125 0 -125 0 0 30 c0 27
-3 30 -30 30 l-30 0 0 95 0 95 30 0 c27 0 30 3 30 30 l0 30 85 0 85 0 0 80 0
80 40 0 40 0 0 -235z m-920 51 c0 -21 6 -25 33 -28 l32 -3 3 -97 3 -98 -36 0
c-32 0 -35 -2 -35 -30 l0 -30 -90 0 -90 0 0 30 c0 28 -3 30 -35 30 l-36 0 3
98 3 97 33 3 c26 3 32 7 32 28 0 24 1 24 90 24 89 0 90 0 90 -24z m410 -6 c0
-28 3 -30 35 -30 l35 0 0 -125 0 -125 -40 0 -40 0 0 115 0 115 -75 0 -75 0 0
-115 0 -115 -40 0 -40 0 0 155 0 155 120 0 120 0 0 -30z m1103 -43 c15 -7 27
-20 27 -29 0 -14 -8 -18 -38 -18 -21 0 -44 6 -51 13 -9 8 -12 8 -7 0 3 -6 0
-14 -6 -16 -7 -3 13 -6 45 -6 31 -1 57 -5 57 -11 0 -5 -6 -10 -12 -11 -10 0
-10 -2 0 -6 8 -3 12 -26 12 -64 l0 -59 38 -1 c27 -1 17 -5 -38 -14 -41 -8 -87
-14 -102 -14 -28 -1 -28 -1 -28 69 0 39 2 70 5 70 3 0 28 -11 55 -25 71 -36
76 -30 5 8 -55 30 -59 35 -62 70 -1 25 2 35 9 31 7 -4 8 -2 4 4 -4 7 -14 12
-23 12 -12 0 -13 3 -4 14 12 15 53 9 114 -17z m209 -69 c30 1 30 -17 1 -24
-50 -11 -49 -12 5 -13 l52 -1 0 -35 0 -35 -80 0 -80 0 0 64 0 64 43 -10 c23
-6 50 -10 59 -10z"/>
<path d="M200 970 l0 -80 75 0 75 0 0 80 0 80 -75 0 -75 0 0 -80z"/>
<path d="M1460 815 l0 -75 75 0 75 0 0 75 0 75 -75 0 -75 0 0 -75z"/>
<path d="M600 815 l0 -75 80 0 80 0 0 75 0 75 -80 0 -80 0 0 -75z"/>
</g>
</svg>
